<svg xmlns="http://www.w3.org/2000/svg" width="63" height="61.912" viewBox="0 0 63 61.912">
  <g id="creative-teaching" transform="translate(0 -5.288)">
    <g id="Group_5400" data-name="Group 5400" transform="translate(0 5.288)">
      <g id="Group_5399" data-name="Group 5399" transform="translate(0 0)">
        <g id="Group_5384" data-name="Group 5384" transform="translate(0 15.802)">
          <g id="Group_5368" data-name="Group 5368" transform="translate(4.977)">
            <g id="Group_5366" data-name="Group 5366" transform="translate(25.539 20.359)">
              <path id="Path_24642" data-name="Path 24642" d="M297.559,382.476a.984.984,0,0,1-.984-.984V357.709a.984.984,0,0,1,1.969,0v23.782A.984.984,0,0,1,297.559,382.476Z" transform="translate(-296.575 -356.725)" fill="#ffcc29"/>
            </g>
            <g id="Group_5367" data-name="Group 5367">
              <path id="Path_24643" data-name="Path 24643" d="M74.892,204.971a.984.984,0,0,1-.984-.984,3.871,3.871,0,0,0-3.866-3.866H49.353a.984.984,0,0,1-.984-.984V159.845a.984.984,0,0,1,.984-.984H64.446a.984.984,0,0,1,0,1.969H50.338v37.322h19.7a5.833,5.833,0,0,1,4.851,2.6,5.835,5.835,0,0,1,4.85-2.6h19.7V160.83H85.322a.984.984,0,0,1,0-1.969h15.109a.984.984,0,0,1,.984.984v39.291a.984.984,0,0,1-.984.984H79.743a3.871,3.871,0,0,0-3.866,3.866A.984.984,0,0,1,74.892,204.971Z" transform="translate(-48.369 -158.861)" fill="#ffcc29"/>
            </g>
          </g>
          <g id="Group_5369" data-name="Group 5369" transform="translate(0 4.976)">
            <path id="Path_24644" data-name="Path 24644" d="M62.016,248.358H.984A.984.984,0,0,1,0,247.374V208.209a.984.984,0,0,1,.984-.984H5.961a.984.984,0,0,1,0,1.969H1.969v37.2H61.031v-37.2H57.039a.984.984,0,1,1,0-1.969h4.977a.984.984,0,0,1,.984.984v39.165a.985.985,0,0,1-.984.984Z" transform="translate(0 -207.225)" fill="#ffcc29"/>
          </g>
          <g id="Group_5376" data-name="Group 5376" transform="translate(11.107 6.673)">
            <g id="Group_5370" data-name="Group 5370">
              <path id="Path_24645" data-name="Path 24645" d="M113.986,225.681h-5.051a.984.984,0,0,1,0-1.969h5.051a.984.984,0,1,1,0,1.969Z" transform="translate(-107.951 -223.712)" fill="#ffcc29"/>
            </g>
            <g id="Group_5371" data-name="Group 5371" transform="translate(0 5.189)">
              <path id="Path_24646" data-name="Path 24646" d="M116.541,276.115h-7.6a.984.984,0,0,1,0-1.969h7.6a.984.984,0,0,1,0,1.969Z" transform="translate(-107.954 -274.146)" fill="#ffcc29"/>
            </g>
            <g id="Group_5372" data-name="Group 5372" transform="translate(0 10.378)">
              <path id="Path_24647" data-name="Path 24647" d="M118.288,326.541h-9.349a.984.984,0,1,1,0-1.969h9.349a.984.984,0,1,1,0,1.969Z" transform="translate(-107.955 -324.572)" fill="#ffcc29"/>
            </g>
            <g id="Group_5373" data-name="Group 5373" transform="translate(0 15.567)">
              <path id="Path_24648" data-name="Path 24648" d="M122.216,376.97H108.939a.984.984,0,0,1,0-1.969h13.277a.984.984,0,0,1,0,1.969Z" transform="translate(-107.955 -375.001)" fill="#ffcc29"/>
            </g>
            <g id="Group_5374" data-name="Group 5374" transform="translate(0 20.756)">
              <path id="Path_24649" data-name="Path 24649" d="M122.216,427.4H108.939a.984.984,0,1,1,0-1.969h13.277a.984.984,0,1,1,0,1.969Z" transform="translate(-107.955 -425.431)" fill="#ffcc29"/>
            </g>
            <g id="Group_5375" data-name="Group 5375" transform="translate(0 25.944)">
              <path id="Path_24650" data-name="Path 24650" d="M122.216,477.826H108.939a.984.984,0,1,1,0-1.969h13.277a.984.984,0,1,1,0,1.969Z" transform="translate(-107.955 -475.857)" fill="#ffcc29"/>
            </g>
          </g>
          <g id="Group_5383" data-name="Group 5383" transform="translate(36.646 6.673)">
            <g id="Group_5377" data-name="Group 5377" transform="translate(8.21)">
              <path id="Path_24651" data-name="Path 24651" d="M442,225.681h-5.067a.984.984,0,0,1,0-1.969H442a.984.984,0,0,1,0,1.969Z" transform="translate(-435.949 -223.712)" fill="#ffcc29"/>
            </g>
            <g id="Group_5378" data-name="Group 5378" transform="translate(5.674 5.189)">
              <path id="Path_24652" data-name="Path 24652" d="M419.889,276.115h-7.6a.984.984,0,0,1,0-1.969h7.6a.984.984,0,0,1,0,1.969Z" transform="translate(-411.302 -274.146)" fill="#ffcc29"/>
            </g>
            <g id="Group_5379" data-name="Group 5379" transform="translate(3.928 10.378)">
              <path id="Path_24653" data-name="Path 24653" d="M404.666,326.541h-9.349a.984.984,0,0,1,0-1.969h9.349a.984.984,0,1,1,0,1.969Z" transform="translate(-394.333 -324.572)" fill="#ffcc29"/>
            </g>
            <g id="Group_5380" data-name="Group 5380" transform="translate(0 15.567)">
              <path id="Path_24654" data-name="Path 24654" d="M370.419,376.97H357.141a.984.984,0,0,1,0-1.969h13.277a.984.984,0,1,1,0,1.969Z" transform="translate(-356.157 -375.001)" fill="#ffcc29"/>
            </g>
            <g id="Group_5381" data-name="Group 5381" transform="translate(0 20.756)">
              <path id="Path_24655" data-name="Path 24655" d="M370.419,427.4H357.141a.984.984,0,0,1,0-1.969h13.277a.984.984,0,1,1,0,1.969Z" transform="translate(-356.157 -425.431)" fill="#ffcc29"/>
            </g>
            <g id="Group_5382" data-name="Group 5382" transform="translate(0 25.944)">
              <path id="Path_24656" data-name="Path 24656" d="M370.419,477.826H357.141a.984.984,0,0,1,0-1.969h13.277a.984.984,0,1,1,0,1.969Z" transform="translate(-356.157 -475.857)" fill="#ffcc29"/>
            </g>
          </g>
        </g>
        <g id="Group_5398" data-name="Group 5398" transform="translate(15.285)">
          <g id="Group_5391" data-name="Group 5391" transform="translate(4.693 6.664)">
            <g id="Group_5385" data-name="Group 5385" transform="translate(5.594 21.566)">
              <path id="Path_24657" data-name="Path 24657" d="M257.981,285.841h-7.072a2.386,2.386,0,0,1-2.384-2.384v-2.818a.984.984,0,0,1,.984-.984h9.871a.984.984,0,0,1,.984.984v2.818A2.386,2.386,0,0,1,257.981,285.841Zm-7.487-4.217v1.833a.416.416,0,0,0,.415.415h7.072a.416.416,0,0,0,.415-.415v-1.833Z" transform="translate(-248.525 -279.655)" fill="#ffcc29"/>
            </g>
            <g id="Group_5386" data-name="Group 5386" transform="translate(7.569 25.832)">
              <path id="Path_24658" data-name="Path 24658" d="M271.719,326.749h-.1a3.9,3.9,0,0,1-3.893-3.894V322.1a.984.984,0,0,1,1.969,0v.755a1.927,1.927,0,0,0,1.924,1.925h.1a1.927,1.927,0,0,0,1.924-1.925V322.1a.984.984,0,0,1,1.969,0v.755A3.9,3.9,0,0,1,271.719,326.749Z" transform="translate(-267.722 -321.116)" fill="#ffcc29"/>
            </g>
            <g id="Group_5387" data-name="Group 5387">
              <path id="Path_24659" data-name="Path 24659" d="M210.375,93.593h-9.4a2.76,2.76,0,0,1-2.7-2.118,5.07,5.07,0,0,0-1.163-2.207,11.514,11.514,0,1,1,17.13,0,5.075,5.075,0,0,0-1.163,2.208,2.759,2.759,0,0,1-2.7,2.118Zm-4.7-21.566h-.148a9.545,9.545,0,0,0-6.951,15.922,7.049,7.049,0,0,1,1.614,3.068.808.808,0,0,0,.787.605h9.4a.808.808,0,0,0,.787-.605,7.049,7.049,0,0,1,1.614-3.068,9.545,9.545,0,0,0-7.1-15.923Z" transform="translate(-194.161 -70.059)" fill="#ffcc29"/>
            </g>
            <g id="Group_5390" data-name="Group 5390" transform="translate(8.351 7.621)">
              <g id="Group_5388" data-name="Group 5388" transform="translate(0 5.313)">
                <path id="Path_24660" data-name="Path 24660" d="M280.668,206.362a.984.984,0,0,1-.984-.984V197.73H277.3v7.648a.984.984,0,0,1-1.969,0v-8.633a.984.984,0,0,1,.984-.984h4.356a.984.984,0,0,1,.984.984v8.633A.984.984,0,0,1,280.668,206.362Z" transform="translate(-275.328 -195.761)" fill="#ffcc29"/>
              </g>
              <g id="Group_5389" data-name="Group 5389">
                <path id="Path_24661" data-name="Path 24661" d="M280.667,151.41h-4.356a.985.985,0,0,1-.911-1.358l2.178-5.313a.984.984,0,0,1,1.822,0l2.178,5.313a.984.984,0,0,1-.911,1.358Zm-2.888-1.969H279.2l-.71-1.733Z" transform="translate(-275.327 -144.129)" fill="#ffcc29"/>
              </g>
            </g>
          </g>
          <g id="Group_5397" data-name="Group 5397">
            <g id="Group_5392" data-name="Group 5392" transform="translate(15.231)">
              <path id="Path_24662" data-name="Path 24662" d="M297.559,10.624a.984.984,0,0,1-.984-.984V6.272a.984.984,0,1,1,1.969,0V9.64A.984.984,0,0,1,297.559,10.624Z" transform="translate(-296.575 -5.288)" fill="#ffcc29"/>
            </g>
            <g id="Group_5393" data-name="Group 5393" transform="translate(6.437 2.356)">
              <path id="Path_24663" data-name="Path 24663" d="M213.784,33.069a.984.984,0,0,1-.854-.492l-1.684-2.916a.984.984,0,1,1,1.7-.984l1.684,2.916a.984.984,0,0,1-.851,1.477Z" transform="translate(-211.115 -28.184)" fill="#ffcc29"/>
            </g>
            <g id="Group_5394" data-name="Group 5394" transform="translate(0 8.793)">
              <path id="Path_24664" data-name="Path 24664" d="M152.453,94.4a.981.981,0,0,1-.491-.132l-2.917-1.684a.984.984,0,1,1,.984-1.705l2.917,1.684a.985.985,0,0,1-.493,1.837Z" transform="translate(-148.552 -90.746)" fill="#ffcc29"/>
            </g>
            <g id="Group_5395" data-name="Group 5395" transform="translate(27.544 8.793)">
              <path id="Path_24665" data-name="Path 24665" d="M417.231,94.4a.984.984,0,0,1-.493-1.837l2.917-1.684a.984.984,0,0,1,.984,1.705l-2.917,1.684A.976.976,0,0,1,417.231,94.4Z" transform="translate(-416.246 -90.746)" fill="#ffcc29"/>
            </g>
            <g id="Group_5396" data-name="Group 5396" transform="translate(22.34 2.356)">
              <path id="Path_24666" data-name="Path 24666" d="M366.651,33.067a.985.985,0,0,1-.851-1.477l1.684-2.916a.984.984,0,1,1,1.7.984L367.5,32.574A.983.983,0,0,1,366.651,33.067Z" transform="translate(-365.668 -28.181)" fill="#ffcc29"/>
            </g>
          </g>
        </g>
      </g>
    </g>
  </g>
</svg>
