<svg xmlns="http://www.w3.org/2000/svg" width="66.196" height="60.781" viewBox="0 0 66.196 60.781">
  <path id="portfolio_1_" data-name="portfolio (1)" d="M67.431,51.3V30.214a3.743,3.743,0,0,0-3.974-3.448H13.739a3.743,3.743,0,0,0-3.974,3.448v10.9A4.424,4.424,0,0,0,6,45.485V82.129a4.422,4.422,0,0,0,4.417,4.417H66.779A4.422,4.422,0,0,0,71.2,82.129V55.669A4.424,4.424,0,0,0,67.431,51.3ZM38.6,51.252c-.8,0-1.273-1.1-1.979-2.889-1.214-3.079-2.876-7.3-8.858-7.3H16.093v-3.79a2.538,2.538,0,0,1,2.374-2.67H63.753a2.538,2.538,0,0,1,2.374,2.67V51.252H38.6ZM13.739,28.07H63.457a2.453,2.453,0,0,1,2.67,2.144v4.033a3.5,3.5,0,0,0-2.374-.942H18.466a3.839,3.839,0,0,0-3.678,3.974v3.79H11.069V30.214a2.453,2.453,0,0,1,2.67-2.144Zm56.153,54.06a3.117,3.117,0,0,1-3.114,3.114H10.417A3.117,3.117,0,0,1,7.3,82.129V45.485a3.117,3.117,0,0,1,3.114-3.114H27.762c5.094,0,6.508,3.587,7.644,6.469.753,1.91,1.464,3.715,3.192,3.715H66.779a3.117,3.117,0,0,1,3.114,3.114ZM28.222,58.523a14.674,14.674,0,1,0,20.753,0,14.578,14.578,0,0,0-20.753,0Zm.922,19.831q-.478-.478-.9-.995a12.533,12.533,0,0,1,20.711,0q-.423.516-.9.995a13.386,13.386,0,0,1-18.909,0Zm20.625-2.1a13.833,13.833,0,0,0-22.341,0,13.37,13.37,0,1,1,22.341,0ZM34.529,59.367a5.754,5.754,0,1,0,8.137,0A5.76,5.76,0,0,0,34.529,59.367Zm7.215,7.215a4.448,4.448,0,1,1,0-6.293A4.421,4.421,0,0,1,41.745,66.582Z" transform="translate(-5.5 -26.266)" fill="#ffcc29" stroke="#ffcc29" stroke-width="1"/>
</svg>
