<svg xmlns="http://www.w3.org/2000/svg" width="56.493" height="60.514" viewBox="0 0 56.493 60.514">
  <g id="bachelor" transform="translate(-3.12 -0.996)">
    <path id="Path_24667" data-name="Path 24667" d="M51.447,35.11a7.307,7.307,0,1,0,7.307,7.307A7.319,7.319,0,0,0,51.447,35.11Zm0,13.206a5.889,5.889,0,1,1,5.889-5.889A5.9,5.9,0,0,1,51.447,48.316Z" transform="translate(-2.228 -1.851)" fill="#ffcc29" stroke="#ffcc29" stroke-width="0.5"/>
    <path id="Path_24668" data-name="Path 24668" d="M56.679,47.42a10.125,10.125,0,0,0-6.75-16.969V16.583A4.64,4.64,0,0,0,45.3,11.951H28.479l-2.59-6.022,3.224-2.8L30.54,6.449a2.571,2.571,0,1,0,4.018,2.94,2.533,2.533,0,0,0-.028-1.966A2.537,2.537,0,0,0,31.845,5.9L30.03,1.675a.693.693,0,0,0-.151-.217c-.009-.009-.028-.019-.038-.038a.888.888,0,0,0-.17-.113.134.134,0,0,0-.057-.019,1.115,1.115,0,0,0-.189-.038.2.2,0,0,0-.076,0h-.038l-14.369,1.4a.753.753,0,0,0-.4.17L3.636,12.282A.7.7,0,0,0,4.1,13.52h.066l5.218-.51,2.647,6.154a.475.475,0,0,0-.019.113v37.35a4.64,4.64,0,0,0,4.632,4.632H49.21a.714.714,0,0,0,.709-.709V50.682h.047l2.146,5.3a.711.711,0,0,0,.605.444h.047a.714.714,0,0,0,.614-.35l1.635-2.827,3.139.9A.709.709,0,0,0,59,53.206ZM31.7,7.366a1.117,1.117,0,0,1,.454-.095,1.1,1.1,0,0,1,.425.085,1.157,1.157,0,1,1-1.494,1.531A1.188,1.188,0,0,1,31.7,7.366Zm16.808,9.217V30.451a10.221,10.221,0,0,0-3.309.794V22.1a.714.714,0,0,0-.709-.709,4.026,4.026,0,0,1-4.018-4.018.714.714,0,0,0-.709-.709H23.658A26.081,26.081,0,0,0,28.3,13.36H45.287a3.24,3.24,0,0,1,3.224,3.224ZM6.245,11.9,15.3,4.039l11.94-1.163-9.056,7.865Zm12.3.227a.753.753,0,0,0,.4-.17L24.764,6.9l2.4,5.587a24.425,24.425,0,0,1-13.9,5.975l-2.4-5.587ZM13.429,56.647V19.854a25.907,25.907,0,0,0,3.309-.52V51.116a.71.71,0,0,0,.718.709,4.029,4.029,0,0,1,4.008,4.008.708.708,0,0,0,.7.718H42.8a.709.709,0,1,0,0-1.418H22.836a5.456,5.456,0,0,0-4.679-4.679V18.965a26.155,26.155,0,0,0,2.552-.87c.009,0,.019.009.028.009H39.1a5.456,5.456,0,0,0,4.679,4.679v9.236A10.112,10.112,0,0,0,41.761,47.43l-2.335,5.776a.7.7,0,0,0,.132.737.709.709,0,0,0,.718.208l3.139-.9,1.635,2.827a.7.7,0,0,0,.614.35h.047a.688.688,0,0,0,.605-.444l2.146-5.3h.047v9.179H16.653a3.226,3.226,0,0,1-3.224-3.214Zm29.438-8.177a10.148,10.148,0,0,0,4.159,2L45.561,54.1,44.38,52.052a.714.714,0,0,0-.813-.331l-2.278.652Zm6.353.832a8.725,8.725,0,1,1,8.725-8.725A8.735,8.735,0,0,1,49.22,49.3Zm5.663,2.42a.724.724,0,0,0-.813.331L52.888,54.1l-1.465-3.63a10.087,10.087,0,0,0,4.159-2l1.579,3.914Z" transform="translate(0 0)" fill="#ffcc29" stroke="#ffcc29" stroke-width="0.5"/>
    <path id="Path_24669" data-name="Path 24669" d="M26.469,29.088H37.908a.709.709,0,0,0,0-1.418H26.469a.709.709,0,0,0,0,1.418Z" transform="translate(-1.223 -1.444)" fill="#ffcc29" stroke="#ffcc29" stroke-width="0.5"/>
    <path id="Path_24670" data-name="Path 24670" d="M22.469,34.358h19a.709.709,0,0,0,0-1.418h-19a.709.709,0,1,0,0,1.418Z" transform="translate(-1.004 -1.732)" fill="#ffcc29" stroke="#ffcc29" stroke-width="0.5"/>
    <path id="Path_24671" data-name="Path 24671" d="M38.511,38.22H22.469a.709.709,0,0,0,0,1.418H38.5a.714.714,0,0,0,.709-.709A.706.706,0,0,0,38.511,38.22Z" transform="translate(-1.004 -2.021)" fill="#ffcc29" stroke="#ffcc29" stroke-width="0.5"/>
    <path id="Path_24672" data-name="Path 24672" d="M38.029,43.5H22.469a.709.709,0,0,0,0,1.418H38.02a.714.714,0,0,0,.709-.709A.706.706,0,0,0,38.029,43.5Z" transform="translate(-1.004 -2.31)" fill="#ffcc29" stroke="#ffcc29" stroke-width="0.5"/>
    <path id="Path_24673" data-name="Path 24673" d="M28.246,48.77H22.479a.709.709,0,0,0,0,1.418h5.767a.709.709,0,1,0,0-1.418Z" transform="translate(-1.005 -2.598)" fill="#ffcc29" stroke="#ffcc29" stroke-width="0.5"/>
    <path id="Path_24674" data-name="Path 24674" d="M54.454,39.768,50.162,44.06,48.81,42.708a.709.709,0,0,0-1,1l1.853,1.853a.707.707,0,0,0,1,0l4.793-4.793a.709.709,0,0,0-1-1Z" transform="translate(-2.417 -2.094)" fill="#ffcc29" stroke="#ffcc29" stroke-width="0.5"/>
  </g>
</svg>
